<svg width="27" height="27" viewBox="0 0 27 27" fill="none" xmlns="http://www.w3.org/2000/svg">
<path d="M2.28608 13.6878C2.1937 13.439 2.1937 13.1652 2.28608 12.9163C3.18586 10.7346 4.71318 8.8692 6.67441 7.55657C8.63564 6.24395 10.9425 5.54321 13.3024 5.54321C15.6624 5.54321 17.9692 6.24395 19.9304 7.55657C21.8917 8.8692 23.419 10.7346 24.3188 12.9163C24.4112 13.1652 24.4112 13.439 24.3188 13.6878C23.419 15.8695 21.8917 17.735 19.9304 19.0476C17.9692 20.3602 15.6624 21.0609 13.3024 21.0609C10.9425 21.0609 8.63564 20.3602 6.67441 19.0476C4.71318 17.735 3.18586 15.8695 2.28608 13.6878Z" stroke="#8B5CF6" stroke-width="2.21701" stroke-linecap="round" stroke-linejoin="round"/>
<path d="M13.3023 16.6275C15.139 16.6275 16.6278 15.1387 16.6278 13.302C16.6278 11.4654 15.139 9.9765 13.3023 9.9765C11.4657 9.9765 9.97681 11.4654 9.97681 13.302C9.97681 15.1387 11.4657 16.6275 13.3023 16.6275Z" stroke="#8B5CF6" stroke-width="2.21701" stroke-linecap="round" stroke-linejoin="round"/>
</svg>
