<svg width="27" height="27" viewBox="0 0 27 27" fill="none" xmlns="http://www.w3.org/2000/svg">
<path d="M11.0851 11.0851V5.54253C11.0851 5.24853 11.2019 4.96658 11.4098 4.7587C11.6176 4.55081 11.8996 4.43402 12.1936 4.43402H14.4106C14.7046 4.43402 14.9866 4.55081 15.1944 4.7587C15.4023 4.96658 15.5191 5.24853 15.5191 5.54253V11.0851" stroke="currentColor" stroke-width="2.21701" stroke-linecap="round" stroke-linejoin="round"/>
<path d="M15.5192 6.65106C17.2831 6.65106 18.9749 7.35179 20.2222 8.59911C21.4695 9.84642 22.1702 11.5381 22.1702 13.3021V16.6276" stroke="currentColor" stroke-width="2.21701" stroke-linecap="round" stroke-linejoin="round"/>
<path d="M4.43408 16.6276V13.3021C4.43408 11.5381 5.13481 9.84642 6.38213 8.59911C7.62944 7.35179 9.32116 6.65106 11.0851 6.65106" stroke="currentColor" stroke-width="2.21701" stroke-linecap="round" stroke-linejoin="round"/>
<path d="M23.2787 16.6276H3.32555C2.71334 16.6276 2.21704 17.1239 2.21704 17.7361V19.9531C2.21704 20.5654 2.71334 21.0617 3.32555 21.0617H23.2787C23.8909 21.0617 24.3872 20.5654 24.3872 19.9531V17.7361C24.3872 17.1239 23.8909 16.6276 23.2787 16.6276Z" stroke="currentColor" stroke-width="2.21701" stroke-linecap="round" stroke-linejoin="round"/>
</svg>
