<svg width="36" height="36" viewBox="0 0 36 36" fill="none" xmlns="http://www.w3.org/2000/svg">
<path d="M21.7268 9.31143C21.456 9.58771 21.3043 9.95916 21.3043 10.346C21.3043 10.7329 21.456 11.1044 21.7268 11.3806L24.0916 13.7455C24.3679 14.0163 24.7393 14.168 25.1262 14.168C25.5131 14.168 25.8845 14.0163 26.1608 13.7455L31.7329 8.17336C32.4761 9.81571 32.7011 11.6456 32.378 13.419C32.0549 15.1925 31.1989 16.8254 29.9242 18.1001C28.6496 19.3748 27.0167 20.2307 25.2432 20.5538C23.4697 20.877 21.6399 20.6519 19.9975 19.9088L9.78447 30.1218C9.19649 30.7098 8.399 31.0401 7.56746 31.0401C6.73592 31.0401 5.93843 30.7098 5.35045 30.1218C4.76246 29.5338 4.43213 28.7363 4.43213 27.9048C4.43213 27.0732 4.76246 26.2758 5.35045 25.6878L15.5635 15.4747C14.8203 13.8324 14.5953 12.0025 14.9184 10.2291C15.2415 8.45558 16.0975 6.82269 17.3722 5.548C18.6468 4.27332 20.2797 3.41738 22.0532 3.09424C23.8267 2.77111 25.6565 2.99614 27.2989 3.73933L21.7416 9.29665L21.7268 9.31143Z" stroke="#1F2937" stroke-width="2.95602" stroke-linecap="round" stroke-linejoin="round"/>
</svg>
