<svg width="36" height="36" viewBox="0 0 36 36" fill="none" xmlns="http://www.w3.org/2000/svg">
<path d="M14.7798 14.7801V7.39001C14.7798 6.99801 14.9355 6.62208 15.2127 6.3449C15.4899 6.06772 15.8658 5.912 16.2578 5.912H19.2138C19.6058 5.912 19.9817 6.06772 20.2589 6.3449C20.5361 6.62208 20.6918 6.99801 20.6918 7.39001V14.7801" stroke="#1F2937" stroke-width="2.95602" stroke-linecap="round" stroke-linejoin="round"/>
<path d="M20.692 8.86804C23.044 8.86804 25.2996 9.80235 26.9627 11.4654C28.6258 13.1285 29.5601 15.3841 29.5601 17.7361V22.1701" stroke="#1F2937" stroke-width="2.95602" stroke-linecap="round" stroke-linejoin="round"/>
<path d="M5.91174 22.1701V17.7361C5.91174 15.3841 6.84605 13.1285 8.50914 11.4654C10.1722 9.80235 12.4278 8.86804 14.7798 8.86804" stroke="#1F2937" stroke-width="2.95602" stroke-linecap="round" stroke-linejoin="round"/>
<path d="M31.038 22.1701H4.43382C3.61754 22.1701 2.95581 22.8318 2.95581 23.6481V26.6041C2.95581 27.4204 3.61754 28.0821 4.43382 28.0821H31.038C31.8543 28.0821 32.516 27.4204 32.516 26.6041V23.6481C32.516 22.8318 31.8543 22.1701 31.038 22.1701Z" stroke="#1F2937" stroke-width="2.95602" stroke-linecap="round" stroke-linejoin="round"/>
</svg>
